<svg width="20" height="20" viewBox="0 0 20 20" fill="none" xmlns="http://www.w3.org/2000/svg">
<rect x="3.14282" y="0.400146" width="1.37142" height="2.74285" fill="#959595"/>
<rect x="3.14282" y="4.5144" width="1.37142" height="4.11427" fill="#959595"/>
<rect x="3.14282" y="10" width="1.37142" height="4.11427" fill="#959595"/>
<rect x="3.14282" y="15.4858" width="1.37142" height="4.11427" fill="#959595"/>
<rect x="4.51416" y="18.2288" width="12.3428" height="1.37142" fill="#959595"/>
<rect x="3.14282" y="3.14282" width="1.37142" height="1.37142" fill="#4C4C4C"/>
<rect x="3.14282" y="8.62866" width="1.37142" height="1.37142" fill="#4C4C4C"/>
<rect x="3.14282" y="14.1143" width="1.37142" height="1.37142" fill="#4C4C4C"/>
<rect x="4.51416" y="0.400146" width="1.37142" height="17.8285" fill="#CDCDCD"/>
<rect x="5.88562" y="0.400146" width="10.9714" height="1.37142" fill="#CDCDCD"/>
<rect x="5.88562" y="4.5144" width="10.9714" height="1.37142" fill="#CDCDCD"/>
<rect x="5.88562" y="8.62866" width="6.85712" height="1.37142" fill="#CDCDCD"/>
<rect x="5.88562" y="12.7429" width="10.9714" height="1.37142" fill="#CDCDCD"/>
<rect x="5.88562" y="16.8574" width="10.9714" height="1.37142" fill="#CDCDCD"/>
<rect x="10" y="1.77148" width="1.37142" height="2.74285" fill="#CDCDCD"/>
<rect x="10" y="5.88599" width="1.37142" height="2.74285" fill="#CDCDCD"/>
<rect x="10" y="10" width="1.37142" height="2.74285" fill="#CDCDCD"/>
<rect x="10" y="14.1143" width="1.37142" height="2.74285" fill="#CDCDCD"/>
<rect x="15.4856" y="1.77148" width="1.37142" height="2.74285" fill="#CDCDCD"/>
<rect x="15.4856" y="5.88599" width="1.37142" height="6.85712" fill="#CDCDCD"/>
<rect x="15.4856" y="14.1143" width="1.37142" height="2.74285" fill="#CDCDCD"/>
<rect x="5.88562" y="10" width="4.11427" height="1.37142" fill="#B1B1B1"/>
<rect x="5.88562" y="11.3716" width="1.37142" height="1.37142" fill="#B1B1B1"/>
<rect x="5.88562" y="14.1143" width="4.11427" height="1.37142" fill="#B1B1B1"/>
<rect x="5.88562" y="15.4858" width="1.37142" height="1.37142" fill="#B1B1B1"/>
<rect x="11.3715" y="10" width="4.11427" height="1.37142" fill="#B1B1B1"/>
<rect x="11.3715" y="11.3716" width="1.37142" height="1.37142" fill="#B1B1B1"/>
<rect x="11.3715" y="14.1143" width="4.11427" height="1.37142" fill="#B1B1B1"/>
<rect x="11.3715" y="15.4858" width="1.37142" height="1.37142" fill="#B1B1B1"/>
<rect x="7.25696" y="11.3716" width="2.74285" height="1.37142" fill="#C1C1C1"/>
<rect x="7.25696" y="15.4858" width="2.74285" height="1.37142" fill="#C1C1C1"/>
<rect x="12.7428" y="11.3716" width="2.74285" height="1.37142" fill="#C1C1C1"/>
<rect x="12.7428" y="15.4858" width="2.74285" height="1.37142" fill="#C1C1C1"/>
<rect x="12.7428" y="8.62866" width="2.74285" height="1.37142" fill="#434343"/>
</svg>
