<svg width="20" height="20" viewBox="0 0 20 20" fill="none" xmlns="http://www.w3.org/2000/svg">
<rect x="0.625" y="10" width="1.25" height="1.25" fill="#AEAEAE"/>
<rect x="1.875" y="8.75" width="1.25" height="1.25" fill="#AEAEAE"/>
<rect x="3.125" y="7.5" width="2.5" height="1.25" fill="#AEAEAE"/>
<rect x="5.625" y="6.25" width="1.25" height="1.25" fill="#AEAEAE"/>
<rect x="6.875" y="5" width="2.5" height="1.25" fill="#AEAEAE"/>
<rect x="9.375" y="3.75" width="1.25" height="1.25" fill="#AEAEAE"/>
<rect x="10.625" y="2.5" width="2.5" height="1.25" fill="#AEAEAE"/>
<rect x="13.125" y="3.75" width="1.25" height="1.25" fill="#AEAEAE"/>
<rect x="14.375" y="5" width="1.25" height="1.25" fill="#AEAEAE"/>
<rect x="15.625" y="7.5" width="1.25" height="1.25" fill="#AEAEAE"/>
<rect x="16.875" y="8.75" width="1.25" height="1.25" fill="#AEAEAE"/>
<rect x="1.875" y="10" width="1.25" height="1.25" fill="#D6D6D6"/>
<rect x="3.125" y="8.75" width="1.25" height="1.25" fill="#D6D6D6"/>
<rect x="3.125" y="11.25" width="1.25" height="1.25" fill="#D6D6D6"/>
<rect x="4.375" y="12.5" width="1.25" height="1.25" fill="#D6D6D6"/>
<rect x="5.625" y="7.5" width="1.25" height="1.25" fill="#D6D6D6"/>
<rect x="5.625" y="13.75" width="1.25" height="1.25" fill="#D6D6D6"/>
<rect x="6.875" y="15" width="1.25" height="1.25" fill="#D6D6D6"/>
<rect x="9.375" y="5" width="1.25" height="1.25" fill="#D6D6D6"/>
<rect x="11.875" y="3.75" width="1.25" height="1.25" fill="#D6D6D6"/>
<rect x="14.375" y="6.25" width="1.25" height="1.25" fill="#D6D6D6"/>
<rect x="14.375" y="11.25" width="1.25" height="1.25" fill="#D6D6D6"/>
<rect x="15.625" y="8.75" width="1.25" height="1.25" fill="#D6D6D6"/>
<rect x="1.875" y="11.25" width="1.25" height="1.25" fill="#878787"/>
<rect x="3.125" y="12.5" width="1.25" height="1.25" fill="#878787"/>
<rect x="4.375" y="13.75" width="1.25" height="1.25" fill="#878787"/>
<rect x="5.625" y="15" width="1.25" height="1.25" fill="#878787"/>
<rect x="6.875" y="16.25" width="2.5" height="1.25" fill="#878787"/>
<rect x="9.375" y="15" width="2.5" height="1.25" fill="#878787"/>
<rect x="11.875" y="13.75" width="1.25" height="1.25" fill="#878787"/>
<rect x="13.125" y="12.5" width="2.5" height="1.25" fill="#878787"/>
<rect x="15.625" y="6.25" width="1.25" height="1.25" fill="#878787"/>
<rect x="15.625" y="11.25" width="1.25" height="1.25" fill="#878787"/>
<rect x="16.875" y="7.5" width="1.25" height="1.25" fill="#878787"/>
<rect x="16.875" y="10" width="1.25" height="1.25" fill="#878787"/>
<rect x="18.125" y="8.75" width="1.25" height="1.25" fill="#878787"/>
<rect x="3.125" y="10" width="1.25" height="1.25" fill="#E9EAEB"/>
<rect x="4.375" y="8.75" width="1.25" height="1.25" fill="#E9EAEB"/>
<rect x="4.375" y="11.25" width="1.25" height="1.25" fill="#E9EAEB"/>
<rect x="5.625" y="12.5" width="1.25" height="1.25" fill="#E9EAEB"/>
<rect x="6.875" y="6.25" width="1.25" height="1.25" fill="#E9EAEB"/>
<rect x="6.875" y="13.75" width="1.25" height="1.25" fill="#E9EAEB"/>
<rect x="9.375" y="13.75" width="1.25" height="1.25" fill="#E9EAEB"/>
<rect x="10.625" y="3.75" width="1.25" height="1.25" fill="#E9EAEB"/>
<rect x="11.875" y="12.5" width="1.25" height="1.25" fill="#E9EAEB"/>
<rect x="13.125" y="5" width="1.25" height="1.25" fill="#E9EAEB"/>
<rect x="13.125" y="11.25" width="1.25" height="1.25" fill="#E9EAEB"/>
<rect x="15.625" y="10" width="1.25" height="1.25" fill="#E9EAEB"/>
<rect x="4.375" y="10" width="11.25" height="1.25" fill="#FCFCF2"/>
<rect x="5.625" y="8.75" width="10" height="1.25" fill="#FCFCF2"/>
<rect x="5.625" y="11.25" width="7.5" height="1.25" fill="#FCFCF2"/>
<rect x="6.875" y="7.5" width="8.75" height="1.25" fill="#FCFCF2"/>
<rect x="6.875" y="12.5" width="5" height="1.25" fill="#FCFCF2"/>
<rect x="8.125" y="6.25" width="6.25" height="1.25" fill="#FCFCF2"/>
<rect x="8.125" y="13.75" width="1.25" height="1.25" fill="#FCFCF2"/>
<rect x="10.625" y="5" width="2.5" height="1.25" fill="#FCFCF2"/>
<rect x="8.125" y="15" width="1.25" height="1.25" fill="#C1C1C1"/>
<rect x="10.625" y="13.75" width="1.25" height="1.25" fill="#C1C1C1"/>
</svg>
